<?xml version="1.0" encoding="utf-8"?>
<!-- Generator: Adobe Illustrator 22.0.0, SVG Export Plug-In . SVG Version: 6.00 Build 0)  -->
<svg version="1.1" id="Layer_1" xmlns="http://www.w3.org/2000/svg" xmlns:xlink="http://www.w3.org/1999/xlink" x="0px" y="0px"
	 viewBox="0 0 1366 768" style="enable-background:new 0 0 1366 768;" xml:space="preserve">
<style type="text/css">
	.st0{fill:#FFFFFF;}
	.st1{fill:url(#SVGID_1_);}
	.st2{fill:url(#SVGID_2_);}
	.st3{fill:url(#SVGID_3_);}
	.st4{fill:url(#SVGID_4_);}
	.st5{fill:url(#SVGID_5_);}
	.st6{opacity:0.4;fill:#FFFFFF;enable-background:new    ;}
	.st7{fill:#F2F2F2;}
</style>
<path class="st0" d="M186.7,510C186.7,509.9,186.7,509.9,186.7,510c0-16.8-13.6-30.4-30.4-30.4c-11.4,0-21.3,6.3-26.5,15.6
	c-4.6-3.2-10.3-5.1-16.4-5.1c-13.7,0-25.2,9.7-28,22.5c-1.5-0.2-3-0.4-4.6-0.4c-15.6,0-28.2,12.6-28.2,28.2
	c0,15.6,12.6,28.2,28.2,28.2c5.5,0,10.7-1.6,15.1-4.4c3.9,4.9,9.9,8.1,16.7,8.1c6.2,0,11.8-2.7,15.7-7c4.5,4.3,10.5,7,17.2,7
	c8.6,0,16.2-4.4,20.7-11.1c5.2,4.6,11.9,7.4,19.4,7.4c16.2,0,29.3-13.1,29.3-29.3C214.9,523.4,202.4,510.5,186.7,510z"/>
<path class="st0" d="M777.7,150C777.7,149.9,777.7,149.9,777.7,150c0-16.8-13.6-30.4-30.4-30.4c-11.4,0-21.3,6.3-26.5,15.6
	c-4.6-3.2-10.3-5.1-16.4-5.1c-13.7,0-25.2,9.7-28,22.5c-1.5-0.2-3-0.4-4.6-0.4c-15.6,0-28.2,12.6-28.2,28.2s12.6,28.2,28.2,28.2
	c5.5,0,10.7-1.6,15.1-4.4c3.9,4.9,9.9,8.1,16.7,8.1c6.2,0,11.8-2.7,15.7-7c4.5,4.3,10.5,7,17.2,7c8.6,0,16.2-4.4,20.7-11.1
	c5.2,4.6,11.9,7.4,19.4,7.4c16.2,0,29.3-13.1,29.3-29.3C805.9,163.4,793.4,150.5,777.7,150z"/>
<path class="st0" d="M933.7,464C933.7,463.9,933.7,463.9,933.7,464c0-16.8-13.6-30.4-30.4-30.4c-11.4,0-21.3,6.3-26.5,15.6
	c-4.6-3.2-10.3-5.1-16.4-5.1c-13.7,0-25.2,9.7-28,22.5c-1.5-0.2-3-0.4-4.6-0.4c-15.6,0-28.2,12.6-28.2,28.2s12.6,28.2,28.2,28.2
	c5.5,0,10.7-1.6,15.1-4.4c3.9,4.9,9.9,8.1,16.7,8.1c6.2,0,11.8-2.7,15.7-7c4.5,4.3,10.5,7,17.2,7c8.6,0,16.2-4.4,20.7-11.1
	c5.2,4.6,11.9,7.4,19.4,7.4c16.2,0,29.3-13.1,29.3-29.3C961.9,477.4,949.4,464.5,933.7,464z"/>
<path class="st0" d="M1323.8,299.7c0-0.1,0-0.3,0-0.4c0-11.7-9.5-21.2-21.2-21.2c-0.6,0-1.2,0-1.7,0.1c-2.8-9-11.2-15.6-21.1-15.6
	c-7.2,0-13.6,3.4-17.6,8.8c-3.1-1.3-6.5-2-10-2c-10.4,0-19.3,6.1-23.5,15c-1.5-0.3-3.1-0.4-4.7-0.4c-14.6,0-26.5,11.9-26.5,26.5
	c0,13.2,9.7,24.2,22.4,26.1c-0.6,2.1-0.9,4.3-0.9,6.6c0,14.2,11.5,25.6,25.6,25.6c8,0,15.2-3.7,19.9-9.4c2.3,0.9,4.8,1.4,7.4,1.4
	c2,0,3.9-0.3,5.8-0.9c3.8,3.8,9,6.1,14.7,6.1c10.6,0,19.3-7.9,20.6-18.1c1.4,0.2,2.7,0.4,4.2,0.4c13.7,0,24.7-11.1,24.7-24.7
	C1341.9,312.2,1334.2,302.6,1323.8,299.7z"/>
<path class="st0" d="M429.8,318.7c0-0.1,0-0.3,0-0.4c0-11.7-9.5-21.2-21.2-21.2c-0.6,0-1.2,0-1.7,0.1c-2.8-9-11.2-15.6-21.1-15.6
	c-7.2,0-13.6,3.4-17.6,8.8c-3.1-1.3-6.5-2-10-2c-10.4,0-19.3,6.1-23.5,15c-1.5-0.3-3.1-0.4-4.7-0.4c-14.6,0-26.5,11.9-26.5,26.5
	c0,13.2,9.7,24.2,22.4,26.1c-0.6,2.1-0.9,4.3-0.9,6.6c0,14.2,11.5,25.6,25.6,25.6c8,0,15.2-3.7,19.9-9.4c2.3,0.9,4.8,1.4,7.4,1.4
	c2,0,3.9-0.3,5.8-0.9c3.8,3.8,9,6.1,14.7,6.1c10.6,0,19.3-7.9,20.6-18.1c1.4,0.2,2.7,0.4,4.2,0.4c13.7,0,24.7-11.1,24.7-24.7
	C447.9,331.2,440.2,321.6,429.8,318.7z"/>
<g>
	<g>
		
			<linearGradient id="SVGID_1_" gradientUnits="userSpaceOnUse" x1="683.8318" y1="31.4101" x2="684.1699" y2="765.2396" gradientTransform="matrix(1 0 0 -1 0 768)">
			<stop  offset="0" style="stop-color:#008AD4"/>
			<stop  offset="9.936175e-02" style="stop-color:#0990D5"/>
			<stop  offset="0.2368" style="stop-color:#1E9CD7"/>
			<stop  offset="1" style="stop-color:#15D4FF"/>
		</linearGradient>
		<path class="st1" d="M27.5,670.1c6.6,0,12.6,2.5,17.6,7c5.6-12.6,16.3-21,28.5-21c13.8,0,25.6,10.7,30.4,25.8
			c5.4-2,11.5-3.1,17.9-3.1c5.9,0,11.5,1,16.7,2.7c6.7-7.2,17.3-11.9,29.3-11.9c16.6,0,30.6,8.8,35.2,21.1c1-0.1,1.9-0.1,2.9-0.1
			c0.7,0,1.3,0,2,0c9.4-11.9,24.3-19.6,41.2-19.6c11,0,21.1,3.2,29.4,8.8c9.4-15.8,27.2-26.5,47.7-26.5c30.2,0,54.7,23.2,54.7,51.8
			v0.1c11.7,0.4,22.4,4.5,30.9,10.9c3.5-1.7,7.2-2.7,11.2-2.7c1.7,0,3.4,0.2,5,0.5c3-17.4,15.3-30.4,30.1-30.4
			c6.6,0,12.6,2.5,17.6,7c5.6-12.6,16.3-21,28.5-21c18.1,0,32.7,18.3,32.7,40.9c0,0,0,0,0,0.1c6.2,0.3,12,2.8,16.8,7
			c5.3-5.9,12.4-9.5,20.1-9.5c1.7,0,3.4,0.2,5,0.5c3-17.4,15.3-30.4,30.1-30.4c6.6,0,12.6,2.5,17.6,7c5.6-12.6,16.3-21,28.5-21
			c18.1,0,32.7,18.3,32.7,40.9c0,0,0,0,0,0.1c7.5,0.3,14.3,4,19.6,9.7c5-5.3,11.4-8.4,18.4-8.4c1.7,0,3.4,0.2,5.1,0.6
			c4.4-12,14.1-20.2,25.3-20.2c3.8,0,7.5,1,10.8,2.7c4.4-7.2,11.2-11.9,18.9-11.9c10.7,0,19.8,8.8,22.8,21.1
			c0.6-0.1,1.2-0.1,1.9-0.1c2.3,0,4.6,0.4,6.7,1.2c5.2-5.2,11.8-8.2,19-8.2c6.6,0,12.6,2.5,17.6,7c5.6-12.6,16.3-21,28.5-21
			c3,0,5.9,0.5,8.7,1.5c4-2.3,8.4-3.6,13-3.6c6.6,0,12.6,2.5,17.6,7c5.6-12.6,16.3-21,28.5-21c17.5,0,31.8,17.2,32.6,38.9
			c0.2,0,0.3,0,0.5,0c3.8,0,7.5,1,10.8,2.7c4.4-7.2,11.2-11.9,18.9-11.9c4.7,0,9,1.7,12.7,4.6c4.2-2.6,8.9-4.2,13.9-4.2
			c6.6,0,12.6,2.5,17.6,7c5.6-12.6,16.3-21,28.5-21c11.5,0,21.6,7.4,27.4,18.6c5.1-4.6,11.3-7.3,18-7.3c6.6,0,12.6,2.5,17.6,7
			c5.6-12.6,16.3-21,28.5-21c18.1,0,32.7,18.3,32.7,40.9c0,0,0,0,0,0.1c11.1,0.5,20.7,8.2,26,19.6c0.2,0,0.5,0.1,0.7,0.1
			c3-17.4,15.3-30.4,30.1-30.4c6.6,0,12.6,2.5,17.6,7c5.6-12.6,16.3-21,28.5-21c18.1,0,32.7,18.3,32.7,40.9c0,0,0,0,0,0.1
			c8.4,0.4,16,4.9,21.5,12V-1H1v690.1C6.4,677.7,16.2,670.1,27.5,670.1z"/>
	</g>
	<g>
		
			<linearGradient id="SVGID_2_" gradientUnits="userSpaceOnUse" x1="711.9" y1="-8.9508" x2="711.9024" y2="-3.6779" gradientTransform="matrix(1 0 0 -1 0 768)">
			<stop  offset="0" style="stop-color:#008AD4"/>
			<stop  offset="9.936175e-02" style="stop-color:#0990D5"/>
			<stop  offset="0.2368" style="stop-color:#1E9CD7"/>
			<stop  offset="1" style="stop-color:#15D4FF"/>
		</linearGradient>
		<path class="st2" d="M709.5,771.6c-1.5,2-3.1,3.7-4.9,5.4h14.6C715.6,776,712.4,774.2,709.5,771.6z"/>
	</g>
	<g>
		
			<linearGradient id="SVGID_3_" gradientUnits="userSpaceOnUse" x1="43.85" y1="-8.95" x2="43.8525" y2="-3.6745" gradientTransform="matrix(1 0 0 -1 0 768)">
			<stop  offset="0" style="stop-color:#008AD4"/>
			<stop  offset="9.936175e-02" style="stop-color:#0990D5"/>
			<stop  offset="0.2368" style="stop-color:#1E9CD7"/>
			<stop  offset="1" style="stop-color:#15D4FF"/>
		</linearGradient>
		<path class="st3" d="M43.5,771.6c-1.5,2.1-3.3,3.8-5.2,5.4h11.1C47.2,775.6,45.2,773.8,43.5,771.6z"/>
	</g>
	<g>
		
			<linearGradient id="SVGID_4_" gradientUnits="userSpaceOnUse" x1="7.9494" y1="-8.9357" x2="7.9526" y2="-2.1486" gradientTransform="matrix(1 0 0 -1 0 768)">
			<stop  offset="0" style="stop-color:#008AD4"/>
			<stop  offset="9.936175e-02" style="stop-color:#0990D5"/>
			<stop  offset="0.2368" style="stop-color:#1E9CD7"/>
			<stop  offset="1" style="stop-color:#15D4FF"/>
		</linearGradient>
		<path class="st4" d="M8.6,770.1c-2.3,1.8-4.9,3.3-7.6,4.4v2.5h13.9C12.5,775.2,10.3,772.8,8.6,770.1z"/>
	</g>
	<g>
		
			<linearGradient id="SVGID_5_" gradientUnits="userSpaceOnUse" x1="666.2" y1="-8.973" x2="666.2013" y2="-6.1681" gradientTransform="matrix(1 0 0 -1 0 768)">
			<stop  offset="0" style="stop-color:#008AD4"/>
			<stop  offset="9.936175e-02" style="stop-color:#0990D5"/>
			<stop  offset="0.2368" style="stop-color:#1E9CD7"/>
			<stop  offset="1" style="stop-color:#15D4FF"/>
		</linearGradient>
		<path class="st5" d="M663.9,777h4.6c-1-0.9-2-1.8-2.9-2.8C665.1,775.2,664.6,776.1,663.9,777z"/>
	</g>
</g>
<path class="st6" d="M584.1,264.5c0.2-1.2,0.3-2.5,0.3-3.8c0-12.9-10.6-23.5-24.2-24.9c0-0.1,0-0.1,0-0.2
	c0-15.3-13.5-27.8-30.2-27.8c-13.5,0-25,8.2-28.8,19.4c-3.8-2.9-8.7-4.6-14-4.6c-9.9,0-18.3,6-21.1,14.3c-3.3-1.6-7-2.5-11-2.5
	c-12,0-21.9,8.2-23.5,18.8c-2.2-0.9-4.6-1.3-7.1-1.3c-10.1,0-18.3,7.5-18.3,16.8c0,2.3,0.5,4.6,1.4,6.6c-10,1.4-17.6,9.2-17.6,18.8
	c0,10.5,9.3,19,20.7,19c5.5,0,10.5-2,14.2-5.2c3.7,2.7,8.4,4.4,13.6,4.4c6.8,0,12.8-2.8,16.8-7.3c5.2,4.1,12,6.6,19.4,6.6
	c6.2,0,12-1.7,16.8-4.7c2.8,1.8,6.1,2.8,9.7,2.8c6.3,0,11.7-3.1,14.7-7.7c4,6.8,11.8,11.3,20.7,11.3s16.7-4.6,20.7-11.3
	c4.7,5,11.5,8.1,19.2,8.1c14,0,25.4-10.5,25.4-23.4C602,276.4,594.5,267.5,584.1,264.5z"/>
<path class="st6" d="M1021.1,517.5c0.2-1.2,0.3-2.5,0.3-3.8c0-12.9-10.6-23.5-24.2-24.9c0-0.1,0-0.1,0-0.2
	c0-15.3-13.5-27.8-30.2-27.8c-13.5,0-25,8.2-28.8,19.4c-3.8-2.9-8.7-4.6-14-4.6c-9.9,0-18.3,6-21.1,14.3c-3.3-1.6-7-2.5-11-2.5
	c-12,0-21.9,8.2-23.5,18.8c-2.2-0.9-4.6-1.3-7.1-1.3c-10.1,0-18.3,7.5-18.3,16.8c0,2.3,0.5,4.6,1.4,6.6c-10,1.4-17.6,9.2-17.6,18.8
	c0,10.5,9.3,19,20.7,19c5.5,0,10.5-2,14.2-5.2c3.7,2.7,8.4,4.4,13.6,4.4c6.8,0,12.8-2.8,16.8-7.3c5.2,4.1,12,6.6,19.4,6.6
	c6.2,0,12-1.7,16.8-4.7c2.8,1.8,6.1,2.8,9.7,2.8c6.3,0,11.7-3.1,14.7-7.7c4,6.8,11.8,11.3,20.7,11.3s16.7-4.6,20.7-11.3
	c4.7,5,11.5,8.1,19.2,8.1c14,0,25.4-10.5,25.4-23.4C1039,529.4,1031.5,520.5,1021.1,517.5z"/>
<path class="st6" d="M265.1,466.5c0.2-1.2,0.3-2.5,0.3-3.8c0-12.9-10.6-23.5-24.2-24.9c0-0.1,0-0.1,0-0.2
	c0-15.3-13.5-27.8-30.2-27.8c-13.5,0-25,8.2-28.8,19.4c-3.8-2.9-8.7-4.6-14-4.6c-9.9,0-18.3,6-21.1,14.3c-3.3-1.6-7-2.5-11-2.5
	c-12,0-21.9,8.2-23.5,18.8c-2.2-0.9-4.6-1.3-7.1-1.3c-10.1,0-18.3,7.5-18.3,16.8c0,2.3,0.5,4.6,1.4,6.6c-10,1.4-17.6,9.2-17.6,18.8
	c0,10.5,9.3,19,20.7,19c5.5,0,10.5-2,14.2-5.2c3.7,2.7,8.4,4.4,13.6,4.4c6.8,0,12.8-2.8,16.8-7.3c5.2,4.1,12,6.6,19.4,6.6
	c6.2,0,12-1.7,16.8-4.7c2.8,1.8,6.1,2.8,9.7,2.8c6.3,0,11.7-3.1,14.7-7.7c4,6.8,11.8,11.3,20.7,11.3s16.7-4.6,20.7-11.3
	c4.7,5,11.5,8.1,19.2,8.1c14,0,25.4-10.5,25.4-23.4C283,478.4,275.5,469.5,265.1,466.5z"/>
<path class="st0" d="M256.2,85.3c-1.6,0-3.1,0.2-4.6,0.4c-1.3-13.1-12.3-23.3-25.8-23.3c-5.8,0-11.1,1.9-15.4,5.1
	c-3.2-3.2-7.6-5.1-12.4-5.1c-4,0-7.6,1.3-10.6,3.5c-3.6-2.2-7.8-3.5-12.3-3.5c-9.7,0-18,5.9-21.5,14.3c-3.5-2.1-7.6-3.4-12-3.4
	c-12.7,0-23.1,10.3-23.1,23.1c0,1,0.1,2.1,0.2,3.1c-5.8,3.6-9.6,10-9.6,17.3c0,11.2,9.1,20.3,20.3,20.3c3.5,0,6.8-0.9,9.6-2.4
	c3,5.3,8.6,8.8,15,8.8c5.4,0,10.2-2.5,13.4-6.4c3.8,2.4,8.2,3.9,13.1,3.9c7.3,0,13.8-3.3,18.2-8.4c4.8,5,11.5,8.2,18.9,8.2
	c7.9,0,15-3.5,19.8-9.1c4.8,4.7,11.4,7.5,18.7,7.5c14.9,0,27-12.1,27-27C283.2,97.4,271.1,85.3,256.2,85.3z"/>
<path class="st0" d="M1234.2,118.3c-1.6,0-3.1,0.2-4.6,0.4c-1.3-13.1-12.3-23.3-25.8-23.3c-5.8,0-11.1,1.9-15.4,5.1
	c-3.2-3.2-7.6-5.1-12.4-5.1c-4,0-7.6,1.3-10.6,3.5c-3.6-2.2-7.8-3.5-12.3-3.5c-9.7,0-18,5.9-21.5,14.3c-3.5-2.1-7.6-3.4-12-3.4
	c-12.7,0-23.1,10.3-23.1,23.1c0,1,0.1,2.1,0.2,3.1c-5.8,3.6-9.6,10-9.6,17.3c0,11.2,9.1,20.3,20.3,20.3c3.5,0,6.8-0.9,9.6-2.4
	c3,5.3,8.6,8.8,15,8.8c5.4,0,10.2-2.5,13.4-6.4c3.8,2.4,8.2,3.9,13.1,3.9c7.3,0,13.8-3.3,18.2-8.4c4.8,5,11.5,8.2,18.9,8.2
	c7.9,0,15-3.5,19.8-9.1c4.8,4.7,11.4,7.5,18.7,7.5c14.9,0,27-12.1,27-27C1261.2,130.4,1249.1,118.3,1234.2,118.3z"/>
<path class="st0" d="M822.7,188C822.7,187.9,822.7,187.9,822.7,188c0-16.8-13.6-30.4-30.4-30.4c-11.4,0-21.3,6.3-26.5,15.6
	c-4.6-3.2-10.3-5.1-16.4-5.1c-13.7,0-25.2,9.7-28,22.5c-1.5-0.2-3-0.4-4.6-0.4c-15.6,0-28.2,12.6-28.2,28.2s12.6,28.2,28.2,28.2
	c5.5,0,10.7-1.6,15.1-4.4c3.9,4.9,9.9,8.1,16.7,8.1c6.2,0,11.8-2.7,15.7-7c4.5,4.3,10.5,7,17.2,7c8.6,0,16.2-4.4,20.7-11.1
	c5.2,4.6,11.9,7.4,19.4,7.4c16.2,0,29.3-13.1,29.3-29.3C850.9,201.4,838.4,188.5,822.7,188z"/>
<path class="st0" d="M1162.7,405C1162.7,404.9,1162.7,404.9,1162.7,405c0-16.8-13.6-30.4-30.4-30.4c-11.4,0-21.3,6.3-26.5,15.6
	c-4.6-3.2-10.3-5.1-16.4-5.1c-13.7,0-25.2,9.7-28,22.5c-1.5-0.2-3-0.4-4.6-0.4c-15.6,0-28.2,12.6-28.2,28.2s12.6,28.2,28.2,28.2
	c5.5,0,10.7-1.6,15.1-4.4c3.9,4.9,9.9,8.1,16.7,8.1c6.2,0,11.8-2.7,15.7-7c4.5,4.3,10.5,7,17.2,7c8.6,0,16.2-4.4,20.7-11.1
	c5.2,4.6,11.9,7.4,19.4,7.4c16.2,0,29.3-13.1,29.3-29.3C1190.9,418.4,1178.4,405.5,1162.7,405z"/>
<path class="st0" d="M238.7,462C238.7,461.9,238.7,461.9,238.7,462c0-16.8-13.6-30.4-30.4-30.4c-11.4,0-21.3,6.3-26.5,15.6
	c-4.6-3.2-10.3-5.1-16.4-5.1c-13.7,0-25.2,9.7-28,22.5c-1.5-0.2-3-0.4-4.6-0.4c-15.6,0-28.2,12.6-28.2,28.2s12.6,28.2,28.2,28.2
	c5.5,0,10.7-1.6,15.1-4.4c3.9,4.9,9.9,8.1,16.7,8.1c6.2,0,11.8-2.7,15.7-7c4.5,4.3,10.5,7,17.2,7c8.6,0,16.2-4.4,20.7-11.1
	c5.2,4.6,11.9,7.4,19.4,7.4c16.2,0,29.3-13.1,29.3-29.3C266.9,475.4,254.4,462.5,238.7,462z"/>
<path class="st6" d="M320.1,132.7c-4,0-7.7,1.1-10.9,2.9c-0.7-12.2-10.9-21.9-23.3-21.9c-7.6,0-14.4,3.7-18.6,9.3
	c-3.8-5.6-10.2-9.3-17.5-9.3c-11.4,0-20.7,9.1-21,20.5c-3.5-2.1-7.5-3.3-11.8-3.3c-12.6,0-22.9,10.2-22.9,22.9c0,0.8,0,1.6,0.1,2.4
	c-4.8,2.9-8.1,8.2-8.1,14.3c0,9.2,7.5,16.7,16.7,16.7c2.1,0,4.2-0.4,6.1-1.2c3,4.7,8.2,7.9,14.2,7.9c4.9,0,9.3-2.1,12.4-5.5
	c2.1,0.6,4.4,1,6.8,1c3.3,0,6.4-0.7,9.2-1.9c4.3,3.6,9.9,5.8,16,5.8c8.7,0,16.4-4.5,20.8-11.3c2.5,0.9,5.1,1.4,7.9,1.4
	c6.9,0,13.1-3.1,17.2-8c2.2,0.7,4.5,1.1,6.9,1.1c12.1,0,22-9.8,22-22C342.1,142.6,332.3,132.7,320.1,132.7z"/>
<path class="st6" d="M1147.1,67.7c-4,0-7.7,1.1-10.9,2.9c-0.7-12.2-10.9-21.9-23.3-21.9c-7.6,0-14.4,3.7-18.6,9.3
	c-3.8-5.6-10.2-9.3-17.5-9.3c-11.4,0-20.7,9.1-21,20.5c-3.5-2.1-7.5-3.3-11.8-3.3c-12.6,0-22.9,10.2-22.9,22.9c0,0.8,0,1.6,0.1,2.4
	c-4.8,2.9-8.1,8.2-8.1,14.3c0,9.2,7.5,16.7,16.7,16.7c2.1,0,4.2-0.4,6.1-1.2c3,4.7,8.2,7.9,14.2,7.9c4.9,0,9.3-2.1,12.4-5.5
	c2.1,0.6,4.4,1,6.8,1c3.3,0,6.4-0.7,9.2-1.9c4.3,3.6,9.9,5.8,16,5.8c8.7,0,16.4-4.5,20.8-11.3c2.5,0.9,5.1,1.4,7.9,1.4
	c6.9,0,13.1-3.1,17.2-8c2.2,0.7,4.5,1.1,6.9,1.1c12.1,0,22-9.8,22-22C1169.1,77.6,1159.3,67.7,1147.1,67.7z"/>
<path class="st7" d="M709.9,487.7l11.5-3.6l37.1-133.9c0,0,1-4.6,6.7-11.8h-0.1c14.6-7.6,28.6-15.3,40.5-22.5
	c22.4-13.5,36.5-26.9,34-32l0,0c-2.4-5.2-21.3-2-45.5,7.8c-12.8,5.2-27.3,11.8-42.2,18.9h0.1c-9,0.1-13.1-1.8-13.1-1.8L613.7,256
	l-9.8,7l97.9,72.9l0,0c-31,16.2-56.1,30.2-60.2,32.2c-2.8,1.4-12.5,8.5-22.3,16.2l0,0L585.3,365l-6.3,3.1l20.9,32.6l0,0
	c-2.7,2.6-4.2,4.5-3.9,5.1c0.3,0.6,2.7,0.6,6.3,0l0,0l12,37.1l6.3-3.1l6.4-39.5l0,0c11.9-3.2,23.3-6.7,26.1-8
	c4.1-2.1,30.3-13.7,61.8-28.8l0,0L709.9,487.7z"/>
</svg>
